<svg xmlns="http://www.w3.org/2000/svg" viewBox="0 0 640 400" width="640" height="400"><defs><marker id="ah" markerWidth="9" markerHeight="8" refX="8" refY="3" orient="auto"><path d="M0,0 L8,3 L0,6 z" fill="#0E1F3F"/></marker><marker id="as" markerWidth="9" markerHeight="8" refX="0" refY="3" orient="auto"><path d="M8,0 L0,3 L8,6 z" fill="#0E1F3F"/></marker></defs><rect x="0" y="0" width="640" height="400" fill="#FFFFFF"/><text x="320" y="30" font-family="Arial,Helvetica,sans-serif" font-size="16" fill="#0E1F3F" text-anchor="middle" font-weight="bold">SUBSTATION PLAN - CONTROL HOUSE PAD</text><rect x="160" y="110" width="340" height="170" fill="#F5F3EE" stroke="#0E1F3F" stroke-width="2"/><line x1="160" y1="110" x2="160" y2="80" stroke="#0E1F3F" stroke-width="1"/><line x1="360" y1="110" x2="360" y2="80" stroke="#0E1F3F" stroke-width="1"/><line x1="160" y1="86" x2="360" y2="86" stroke="#0E1F3F" stroke-width="1.2" marker-start="url(#as)" marker-end="url(#ah)"/><text x="260" y="80" font-family="Arial,Helvetica,sans-serif" font-size="15" fill="#0E1F3F" text-anchor="middle" font-weight="normal">2 1/2 IN</text><line x1="360" y1="110" x2="360" y2="80" stroke="#0E1F3F" stroke-width="1"/><line x1="500" y1="110" x2="500" y2="80" stroke="#0E1F3F" stroke-width="1"/><line x1="360" y1="86" x2="500" y2="86" stroke="#0E1F3F" stroke-width="1.2" marker-start="url(#as)" marker-end="url(#ah)"/><text x="430" y="80" font-family="Arial,Helvetica,sans-serif" font-size="15" fill="#0E1F3F" text-anchor="middle" font-weight="normal">1 3/4 IN</text><line x1="500" y1="110" x2="546" y2="110" stroke="#0E1F3F" stroke-width="1"/><line x1="500" y1="280" x2="546" y2="280" stroke="#0E1F3F" stroke-width="1"/><line x1="540" y1="110" x2="540" y2="280" stroke="#0E1F3F" stroke-width="1.2" marker-start="url(#as)" marker-end="url(#ah)"/><text x="548" y="200" font-family="Arial,Helvetica,sans-serif" font-size="15" fill="#0E1F3F" text-anchor="start" font-weight="normal">2 3/4 IN</text><text x="330" y="202" font-family="Arial,Helvetica,sans-serif" font-size="15" fill="#0E1F3F" text-anchor="middle" font-weight="normal">CONTROL HOUSE PAD</text><text x="160" y="330" font-family="Arial,Helvetica,sans-serif" font-size="16" fill="#0E1F3F" text-anchor="start" font-weight="bold">SCALE: 1 IN = 20 FT</text><text x="160" y="362" font-family="Arial,Helvetica,sans-serif" font-size="15" fill="#0E1F3F" text-anchor="start" font-weight="normal">NOTE: DIMENSIONS SHOWN ARE AS MEASURED ON THE PRINT.</text></svg>