<svg xmlns="http://www.w3.org/2000/svg" viewBox="0 0 640 400" width="640" height="400"><defs><marker id="ah" markerWidth="9" markerHeight="8" refX="8" refY="3" orient="auto"><path d="M0,0 L8,3 L0,6 z" fill="#0E1F3F"/></marker><marker id="as" markerWidth="9" markerHeight="8" refX="0" refY="3" orient="auto"><path d="M8,0 L0,3 L8,6 z" fill="#0E1F3F"/></marker></defs><rect x="0" y="0" width="640" height="400" fill="#FFFFFF"/><text x="320" y="26" font-family="Arial,Helvetica,sans-serif" font-size="16" fill="#0E1F3F" text-anchor="middle" font-weight="bold">HYDRAULIC PRESS</text><rect x="120" y="150" width="40" height="140" fill="#DADFE5" stroke="#0E1F3F" stroke-width="2"/><rect x="400" y="120" width="120" height="170" fill="#DADFE5" stroke="#0E1F3F" stroke-width="2"/><rect x="160" y="270" width="240" height="20" fill="#DADFE5" stroke="#0E1F3F" stroke-width="2"/><rect x="120" y="140" width="40" height="18" fill="#F5F3EE" stroke="#0E1F3F" stroke-width="2"/><rect x="400" y="110" width="120" height="18" fill="#F5F3EE" stroke="#0E1F3F" stroke-width="2"/><line x1="120" y1="290" x2="120" y2="342" stroke="#0E1F3F" stroke-width="1"/><line x1="160" y1="290" x2="160" y2="342" stroke="#0E1F3F" stroke-width="1"/><line x1="120" y1="336" x2="160" y2="336" stroke="#0E1F3F" stroke-width="1.2" marker-start="url(#as)" marker-end="url(#ah)"/><text x="140" y="330" font-family="Arial,Helvetica,sans-serif" font-size="15" fill="#0E1F3F" text-anchor="middle" font-weight="normal">2 IN</text><line x1="400" y1="110" x2="400" y2="78" stroke="#0E1F3F" stroke-width="1"/><line x1="520" y1="110" x2="520" y2="78" stroke="#0E1F3F" stroke-width="1"/><line x1="400" y1="84" x2="520" y2="84" stroke="#0E1F3F" stroke-width="1.2" marker-start="url(#as)" marker-end="url(#ah)"/><text x="460" y="78" font-family="Arial,Helvetica,sans-serif" font-size="15" fill="#0E1F3F" text-anchor="middle" font-weight="normal">6 IN</text><line x1="140" y1="66" x2="140" y2="134" stroke="#0E1F3F" stroke-width="2" marker-end="url(#ah)"/><text x="150" y="52" font-family="Arial,Helvetica,sans-serif" font-size="15" fill="#0E1F3F" text-anchor="middle" font-weight="normal">PUSH DOWN 9 IN</text><line x1="568" y1="150" x2="568" y2="112" stroke="#0E1F3F" stroke-width="2" marker-end="url(#ah)"/><text x="568" y="100" font-family="Arial,Helvetica,sans-serif" font-size="15" fill="#0E1F3F" text-anchor="middle" font-weight="normal">RISE = ?</text><text x="330" y="368" font-family="Arial,Helvetica,sans-serif" font-size="15" fill="#0E1F3F" text-anchor="middle" font-weight="normal">CYLINDERS AND CONNECTING PIPE ARE FULL OF OIL</text><text x="330" y="390" font-family="Arial,Helvetica,sans-serif" font-size="15" fill="#0E1F3F" text-anchor="middle" font-weight="normal">PISTON DIAMETERS ARE DIMENSIONED ON THE DRAWING</text></svg>