<svg xmlns="http://www.w3.org/2000/svg" viewBox="0 0 640 400" width="640" height="400"><defs><marker id="ah" markerWidth="9" markerHeight="8" refX="8" refY="3" orient="auto"><path d="M0,0 L8,3 L0,6 z" fill="#0E1F3F"/></marker><marker id="as" markerWidth="9" markerHeight="8" refX="0" refY="3" orient="auto"><path d="M8,0 L0,3 L8,6 z" fill="#0E1F3F"/></marker></defs><rect x="0" y="0" width="640" height="400" fill="#FFFFFF"/><text x="320" y="28" font-family="Arial,Helvetica,sans-serif" font-size="16" fill="#0E1F3F" text-anchor="middle" font-weight="bold">WHEELBARROW</text><circle cx="150" cy="280" r="44" fill="#DADFE5" stroke="#0E1F3F" stroke-width="2"/><circle cx="150" cy="280" r="8" fill="#0E1F3F" stroke="#0E1F3F" stroke-width="0"/><line x1="150" y1="280" x2="520" y2="190" stroke="#0E1F3F" stroke-width="4"/><line x1="150" y1="280" x2="300" y2="216" stroke="#0E1F3F" stroke-width="2"/><rect x="228" y="170" width="90" height="50" fill="#F5F3EE" stroke="#0E1F3F" stroke-width="2"/><text x="273" y="200" font-family="Arial,Helvetica,sans-serif" font-size="15" fill="#0E1F3F" text-anchor="middle" font-weight="normal">240 LB</text><line x1="273" y1="220" x2="273" y2="245" stroke="#0E1F3F" stroke-width="1.5"/><line x1="500" y1="236" x2="500" y2="202" stroke="#0E1F3F" stroke-width="2" marker-end="url(#ah)"/><text x="500" y="256" font-family="Arial,Helvetica,sans-serif" font-size="15" fill="#0E1F3F" text-anchor="middle" font-weight="normal">LIFT</text><line x1="150" y1="170" x2="150" y2="114" stroke="#0E1F3F" stroke-width="1"/><line x1="273" y1="170" x2="273" y2="114" stroke="#0E1F3F" stroke-width="1"/><line x1="150" y1="120" x2="273" y2="120" stroke="#0E1F3F" stroke-width="1.2" marker-start="url(#as)" marker-end="url(#ah)"/><text x="211.5" y="114" font-family="Arial,Helvetica,sans-serif" font-size="15" fill="#0E1F3F" text-anchor="middle" font-weight="normal">18 IN</text><line x1="150" y1="190" x2="150" y2="82" stroke="#0E1F3F" stroke-width="1"/><line x1="512" y1="190" x2="512" y2="82" stroke="#0E1F3F" stroke-width="1"/><line x1="150" y1="88" x2="512" y2="88" stroke="#0E1F3F" stroke-width="1.2" marker-start="url(#as)" marker-end="url(#ah)"/><text x="331" y="82" font-family="Arial,Helvetica,sans-serif" font-size="15" fill="#0E1F3F" text-anchor="middle" font-weight="normal">60 IN</text><line x1="150" y1="280" x2="150" y2="118" stroke="#0E1F3F" stroke-width="1"/><text x="150" y="344" font-family="Arial,Helvetica,sans-serif" font-size="15" fill="#0E1F3F" text-anchor="middle" font-weight="normal">AXLE</text><text x="40" y="376" font-family="Arial,Helvetica,sans-serif" font-size="15" fill="#0E1F3F" text-anchor="start" font-weight="normal">NOTE: DISTANCES ARE MEASURED FROM THE CENTRE OF THE AXLE.</text></svg>