<svg xmlns="http://www.w3.org/2000/svg" viewBox="0 0 640 400" width="640" height="400"><defs><marker id="ah" markerWidth="9" markerHeight="8" refX="8" refY="3" orient="auto"><path d="M0,0 L8,3 L0,6 z" fill="#0E1F3F"/></marker><marker id="as" markerWidth="9" markerHeight="8" refX="0" refY="3" orient="auto"><path d="M8,0 L0,3 L8,6 z" fill="#0E1F3F"/></marker></defs><rect x="0" y="0" width="640" height="400" fill="#FFFFFF"/><text x="320" y="26" font-family="Arial,Helvetica,sans-serif" font-size="16" fill="#0E1F3F" text-anchor="middle" font-weight="bold">FOUR RIGGINGS - EACH LIFTING THE SAME 500 LB LOAD</text><rect x="20" y="56" width="134" height="12" fill="#DADFE5" stroke="#0E1F3F" stroke-width="2"/><text x="24" y="102" font-family="Arial,Helvetica,sans-serif" font-size="17" fill="#0E1F3F" text-anchor="middle" font-weight="bold">W</text><circle cx="87" cy="92" r="14" fill="#DADFE5" stroke="#0E1F3F" stroke-width="2"/><circle cx="87" cy="92" r="3.5" fill="#0E1F3F" stroke="#0E1F3F" stroke-width="0"/><line x1="73" y1="92" x2="73" y2="280" stroke="#0E1F3F" stroke-width="2"/><line x1="101" y1="92" x2="101" y2="240" stroke="#0E1F3F" stroke-width="2"/><line x1="101" y1="240" x2="101" y2="274" stroke="#0E1F3F" stroke-width="2" marker-end="url(#ah)"/><rect x="45" y="280" width="56" height="32" fill="#F5F3EE" stroke="#0E1F3F" stroke-width="2"/><rect x="176" y="56" width="134" height="12" fill="#DADFE5" stroke="#0E1F3F" stroke-width="2"/><text x="180" y="102" font-family="Arial,Helvetica,sans-serif" font-size="17" fill="#0E1F3F" text-anchor="middle" font-weight="bold">X</text><circle cx="243" cy="250" r="14" fill="#DADFE5" stroke="#0E1F3F" stroke-width="2"/><circle cx="243" cy="250" r="3.5" fill="#0E1F3F" stroke="#0E1F3F" stroke-width="0"/><rect x="223" y="64" width="12" height="12" fill="#0E1F3F" stroke="#0E1F3F" stroke-width="0"/><line x1="229" y1="76" x2="229" y2="250" stroke="#0E1F3F" stroke-width="2"/><line x1="257" y1="250" x2="257" y2="118" stroke="#0E1F3F" stroke-width="2"/><line x1="257" y1="118" x2="257" y2="86" stroke="#0E1F3F" stroke-width="2" marker-end="url(#ah)"/><rect x="219" y="264" width="48" height="10" fill="#DADFE5" stroke="#0E1F3F" stroke-width="2"/><line x1="243" y1="274" x2="243" y2="282" stroke="#0E1F3F" stroke-width="2"/><rect x="215" y="282" width="56" height="32" fill="#F5F3EE" stroke="#0E1F3F" stroke-width="2"/><rect x="332" y="56" width="134" height="12" fill="#DADFE5" stroke="#0E1F3F" stroke-width="2"/><text x="336" y="102" font-family="Arial,Helvetica,sans-serif" font-size="17" fill="#0E1F3F" text-anchor="middle" font-weight="bold">Y</text><circle cx="362" cy="92" r="14" fill="#DADFE5" stroke="#0E1F3F" stroke-width="2"/><circle cx="362" cy="92" r="3.5" fill="#0E1F3F" stroke="#0E1F3F" stroke-width="0"/><circle cx="436" cy="92" r="14" fill="#DADFE5" stroke="#0E1F3F" stroke-width="2"/><circle cx="436" cy="92" r="3.5" fill="#0E1F3F" stroke="#0E1F3F" stroke-width="0"/><circle cx="399" cy="250" r="14" fill="#DADFE5" stroke="#0E1F3F" stroke-width="2"/><circle cx="399" cy="250" r="3.5" fill="#0E1F3F" stroke="#0E1F3F" stroke-width="0"/><line x1="348" y1="92" x2="348" y2="172" stroke="#0E1F3F" stroke-width="2"/><line x1="348" y1="172" x2="348" y2="206" stroke="#0E1F3F" stroke-width="2" marker-end="url(#ah)"/><line x1="376" y1="92" x2="385" y2="250" stroke="#0E1F3F" stroke-width="2"/><line x1="413" y1="250" x2="422" y2="92" stroke="#0E1F3F" stroke-width="2"/><rect x="375" y="264" width="48" height="10" fill="#DADFE5" stroke="#0E1F3F" stroke-width="2"/><line x1="450" y1="92" x2="450" y2="76" stroke="#0E1F3F" stroke-width="2"/><rect x="444" y="64" width="12" height="12" fill="#0E1F3F" stroke="#0E1F3F" stroke-width="0"/><line x1="399" y1="274" x2="399" y2="282" stroke="#0E1F3F" stroke-width="2"/><rect x="371" y="282" width="56" height="32" fill="#F5F3EE" stroke="#0E1F3F" stroke-width="2"/><rect x="488" y="56" width="134" height="12" fill="#DADFE5" stroke="#0E1F3F" stroke-width="2"/><text x="492" y="102" font-family="Arial,Helvetica,sans-serif" font-size="17" fill="#0E1F3F" text-anchor="middle" font-weight="bold">Z</text><circle cx="518" cy="92" r="14" fill="#DADFE5" stroke="#0E1F3F" stroke-width="2"/><circle cx="518" cy="92" r="3.5" fill="#0E1F3F" stroke="#0E1F3F" stroke-width="0"/><circle cx="592" cy="92" r="14" fill="#DADFE5" stroke="#0E1F3F" stroke-width="2"/><circle cx="592" cy="92" r="3.5" fill="#0E1F3F" stroke="#0E1F3F" stroke-width="0"/><circle cx="555" cy="250" r="14" fill="#DADFE5" stroke="#0E1F3F" stroke-width="2"/><circle cx="555" cy="250" r="3.5" fill="#0E1F3F" stroke="#0E1F3F" stroke-width="0"/><line x1="504" y1="92" x2="504" y2="172" stroke="#0E1F3F" stroke-width="2"/><line x1="504" y1="172" x2="504" y2="206" stroke="#0E1F3F" stroke-width="2" marker-end="url(#ah)"/><line x1="532" y1="92" x2="541" y2="250" stroke="#0E1F3F" stroke-width="2"/><line x1="569" y1="250" x2="578" y2="92" stroke="#0E1F3F" stroke-width="2"/><rect x="531" y="264" width="48" height="10" fill="#DADFE5" stroke="#0E1F3F" stroke-width="2"/><line x1="606" y1="92" x2="575" y2="264" stroke="#0E1F3F" stroke-width="2"/><rect x="569" y="262" width="12" height="12" fill="#0E1F3F" stroke="#0E1F3F" stroke-width="0"/><line x1="555" y1="274" x2="555" y2="282" stroke="#0E1F3F" stroke-width="2"/><rect x="527" y="282" width="56" height="32" fill="#F5F3EE" stroke="#0E1F3F" stroke-width="2"/><text x="40" y="348" font-family="Arial,Helvetica,sans-serif" font-size="15" fill="#0E1F3F" text-anchor="start" font-weight="normal">NOTE: THE SHADED BAR IS THE OVERHEAD BEAM AND EACH SMALL BLACK SQUARE</text><text x="40" y="370" font-family="Arial,Helvetica,sans-serif" font-size="15" fill="#0E1F3F" text-anchor="start" font-weight="normal">IS WHERE THE END OF THE ROPE IS MADE FAST. ARROWS SHOW WHERE THE WORKER</text><text x="40" y="392" font-family="Arial,Helvetica,sans-serif" font-size="15" fill="#0E1F3F" text-anchor="start" font-weight="normal">PULLS. IGNORE FRICTION AND THE WEIGHT OF THE BLOCKS.</text></svg>