<svg xmlns="http://www.w3.org/2000/svg" viewBox="0 0 640 400" width="640" height="400"><defs><marker id="ah" markerWidth="9" markerHeight="8" refX="8" refY="3" orient="auto"><path d="M0,0 L8,3 L0,6 z" fill="#0E1F3F"/></marker><marker id="as" markerWidth="9" markerHeight="8" refX="0" refY="3" orient="auto"><path d="M8,0 L0,3 L8,6 z" fill="#0E1F3F"/></marker></defs><rect x="0" y="0" width="640" height="400" fill="#FFFFFF"/><text x="320" y="26" font-family="Arial,Helvetica,sans-serif" font-size="16" fill="#0E1F3F" text-anchor="middle" font-weight="bold">SCREW JACK</text><rect x="250" y="300" width="140" height="36" fill="#DADFE5" stroke="#0E1F3F" stroke-width="2"/><text x="320" y="356" font-family="Arial,Helvetica,sans-serif" font-size="15" fill="#0E1F3F" text-anchor="middle" font-weight="normal">BASE</text><rect x="300" y="140" width="40" height="160" fill="#FFFFFF" stroke="#0E1F3F" stroke-width="2"/><path d="M300 150 L340 143 M300 164 L340 157 M300 178 L340 171 M300 192 L340 185 M300 206 L340 199 M300 220 L340 213 M300 234 L340 227 M300 248 L340 241 M300 262 L340 255 M300 276 L340 269 M300 290 L340 283 " fill="none" stroke="#0E1F3F" stroke-width="1.5"/><rect x="268" y="112" width="104" height="30" fill="#DADFE5" stroke="#0E1F3F" stroke-width="2"/><text x="320" y="132" font-family="Arial,Helvetica,sans-serif" font-size="14" fill="#0E1F3F" text-anchor="middle" font-weight="normal">LOAD PAD</text><line x1="340" y1="200" x2="560" y2="200" stroke="#0E1F3F" stroke-width="4"/><line x1="548" y1="158" x2="548" y2="190" stroke="#0E1F3F" stroke-width="2" marker-end="url(#ah)"/><text x="548" y="146" font-family="Arial,Helvetica,sans-serif" font-size="15" fill="#0E1F3F" text-anchor="middle" font-weight="normal">30 LB</text><line x1="340" y1="204" x2="340" y2="252" stroke="#0E1F3F" stroke-width="1"/><line x1="556" y1="204" x2="556" y2="252" stroke="#0E1F3F" stroke-width="1"/><line x1="340" y1="246" x2="556" y2="246" stroke="#0E1F3F" stroke-width="1.2" marker-start="url(#as)" marker-end="url(#ah)"/><text x="448" y="240" font-family="Arial,Helvetica,sans-serif" font-size="15" fill="#0E1F3F" text-anchor="middle" font-weight="normal">20 IN</text><text x="214" y="190" font-family="Arial,Helvetica,sans-serif" font-size="15" fill="#0E1F3F" text-anchor="end" font-weight="normal">4 THREADS</text><text x="214" y="210" font-family="Arial,Helvetica,sans-serif" font-size="15" fill="#0E1F3F" text-anchor="end" font-weight="normal">PER INCH</text><line x1="220" y1="196" x2="296" y2="196" stroke="#0E1F3F" stroke-width="1"/><text x="40" y="376" font-family="Arial,Helvetica,sans-serif" font-size="15" fill="#0E1F3F" text-anchor="start" font-weight="normal">NOTE: THE HANDLE LENGTH IS MEASURED FROM THE SCREW CENTRE.</text></svg>