<svg xmlns="http://www.w3.org/2000/svg" viewBox="0 0 640 400" width="640" height="400"><defs><marker id="ah" markerWidth="9" markerHeight="8" refX="8" refY="3" orient="auto"><path d="M0,0 L8,3 L0,6 z" fill="#0E1F3F"/></marker><marker id="as" markerWidth="9" markerHeight="8" refX="0" refY="3" orient="auto"><path d="M8,0 L0,3 L8,6 z" fill="#0E1F3F"/></marker></defs><rect x="0" y="0" width="640" height="400" fill="#FFFFFF"/><text x="320" y="34" font-family="Arial,Helvetica,sans-serif" font-size="16" fill="#0E1F3F" text-anchor="middle" font-weight="bold">CIRCULATING WATER PUMP - SHIFT LOG</text><text x="320" y="62" font-family="Arial,Helvetica,sans-serif" font-size="15" fill="#0E1F3F" text-anchor="middle" font-weight="normal">READINGS TAKEN ON THE HOUR</text><rect x="56" y="92" width="532" height="50" fill="#DADFE5" stroke="#0E1F3F" stroke-width="2"/><rect x="56" y="142" width="532" height="216" fill="#FFFFFF" stroke="#0E1F3F" stroke-width="2"/><path d="M152 92 L152 358 M300 92 L300 358 M448 92 L448 358 M56 142 L588 142 M56 178 L588 178 M56 214 L588 214 M56 250 L588 250 M56 286 L588 286 M56 322 L588 322 M56 358 L588 358 " fill="none" stroke="#0E1F3F" stroke-width="1.2"/><g font-family="Arial,Helvetica,sans-serif" font-size="14" fill="#0E1F3F" text-anchor="middle" font-weight="bold"><text x="104" y="124">TIME</text><text x="226" y="120">PUMP 1 DISCHARGE</text><text x="374" y="120">PUMP 2 DISCHARGE</text><text x="518" y="120">HEADER FLOW</text></g><g font-family="Arial,Helvetica,sans-serif" font-size="14" fill="#0E1F3F" text-anchor="middle" font-weight="normal"><text x="226" y="138">(PSI)</text><text x="374" y="138">(PSI)</text><text x="518" y="138">(GPM)</text></g><g font-family="Arial,Helvetica,sans-serif" font-size="15" fill="#0E1F3F" text-anchor="middle" font-weight="normal"><text x="104" y="166">0600</text><text x="226" y="166">412</text><text x="374" y="166">398</text><text x="518" y="166">9,600</text><text x="104" y="202">0700</text><text x="226" y="202">408</text><text x="374" y="202">393</text><text x="518" y="202">9,540</text><text x="104" y="238">0800</text><text x="226" y="238">401</text><text x="374" y="238">388</text><text x="518" y="238">9,380</text><text x="104" y="274">0900</text><text x="226" y="274">396</text><text x="374" y="274">371</text><text x="518" y="274">9,120</text><text x="104" y="310">1000</text><text x="226" y="310">394</text><text x="374" y="310">366</text><text x="518" y="310">8,980</text><text x="104" y="346">1100</text><text x="226" y="346">389</text><text x="374" y="346">352</text><text x="518" y="346">8,700</text></g></svg>